<?xml version="1.0" standalone="no"?>
<!DOCTYPE svg PUBLIC "-//W3C//DTD SVG 1.1//EN" "http://www.w3.org/Graphics/SVG/1.1/DTD/svg11.dtd" >
<svg xmlns="http://www.w3.org/2000/svg">
<metadata>
Created by FontPrep 20130207 at Mon Oct 20 06:57:27 2014
 By Vincent Tuscano
Copyright 1988-1991 Adobe Systems Inc.
</metadata>
<defs>
<font id="3c5c708c388a2ae89cf5c9f5d91fee6c" horiz-adv-x='1024' >
  <font-face 
    font-family="HelveticaNeueLT-Thin"
    font-weight="400"
    font-stretch="normal"
    units-per-em="2048"
    panose-1="2 11 4 4 2 0 2 2 2 3"
    ascent="1638"
    descent="-410"
    x-height="1053"
    cap-height="1462"
    bbox="-346 -438 2132 1896"
    underline-thickness="102"
    underline-position="-154"
    unicode-range="U+0020-FB02"
  />
<missing-glyph horiz-adv-x="1024" 
d="M102 1049h820v-1049h-820v1049zM905 16v1016h-786v-1016h786z" />
    <glyph glyph-name=".notdef" horiz-adv-x="1024" 
d="M102 1049h820v-1049h-820v1049zM905 16v1016h-786v-1016h786z" />
    <glyph glyph-name=".null" horiz-adv-x="0" 
 />
    <glyph glyph-name="nonmarkingreturn" horiz-adv-x="682" 
 />
    <glyph glyph-name="space" unicode=" " horiz-adv-x="569" 
 />
    <glyph glyph-name="space" unicode="&#xa0;" horiz-adv-x="569" 
 />
    <glyph glyph-name="exclam" unicode="!" horiz-adv-x="530" 
d="M317 0h-104v211h104v-211zM217 1462h98v-493l-24 -594h-49l-25 594v493z" />
    <glyph glyph-name="quotedbl" unicode="&#x22;" horiz-adv-x="645" 
d="M403 993v469h78v-469h-78zM164 993v469h78v-469h-78z" />
    <glyph glyph-name="numbersign" unicode="#" 
d="M428 895l-49 -354h346l49 354h-346zM1077 962v-67h-235l-49 -354h227v-68h-238l-65 -473h-68l66 473h-346l-66 -473h-67l65 473h-240v68h250l49 354h-241v67h252l63 451h68l-64 -451h346l64 451h67l-63 -451h225z" />
    <glyph glyph-name="dollar" unicode="$" 
d="M528 -215v180q-227 19 -364 137t-139 379h77q0 -399 426 -438v682l-96 22q-152 35 -246 103q-116 90 -116 258q-2 35 14 102t58 128t136 107t250 52v100h66v-100q442 4 475 -451h-78q-13 201 -115 288t-282 87v-635l160 -39q198 -51 278 -147q74 -96 72 -225
q-4 -221 -158 -315t-352 -95v-180h-66zM528 805v614q-202 -8 -292 -94t-89 -217q0 -70 24 -119q60 -123 273 -166zM594 711v-668q180 -2 305 78t127 254q2 229 -307 305z" />
    <glyph glyph-name="percent" unicode="%" horiz-adv-x="1593" 
d="M422 778q122 0 192 89t70 209t-66 206q-67 86 -195 86q-127 0 -195 -86t-68 -206t71 -208q68 -90 191 -90zM82 1074q0 155 92 257q90 105 252 105t249 -102t86 -258q-1 -154 -90 -260t-247 -105q-158 0 -248 106q-94 102 -94 257zM1172 45q122 0 192 89t69 209
q0 120 -65 206q-68 86 -196 86t-193 -86q-70 -86 -70 -206t72 -208q69 -90 191 -90zM831 341q0 155 93 257q90 104 252 104t248 -102q87 -102 86 -257t-90 -261q-88 -106 -246 -105q-158 0 -248 107q-95 102 -95 257zM283 -49l952 1511h82l-952 -1511h-82z" />
    <glyph glyph-name="ampersand" unicode="&#x26;" horiz-adv-x="1214" 
d="M938 217q-143 -237 -416 -242q-186 0 -307 97q-125 92 -126 266t128 291q57 55 123 97t129 81q-137 163 -179 273q-20 50 -20 106q2 114 96 182t214 69q122 1 213 -63q90 -65 92 -188q0 -76 -25 -135q-52 -104 -168 -185q-55 -39 -110 -80l348 -428q47 117 49 244h78
q-11 -164 -74 -309l238 -293h-105zM799 158q92 100 88 123l-377 469q-56 -35 -116 -73q-138 -88 -193 -190q-35 -59 -35 -139q2 -145 113 -223q105 -82 255 -82t265 115zM580 1368q-88 0 -160 -49q-70 -49 -72 -133q0 -83 70 -187q89 -110 119 -155q94 57 180 139
q91 91 89 214q-2 73 -70 122t-156 49z" />
    <glyph glyph-name="quotesingle" unicode="'" horiz-adv-x="418" 
d="M170 993v469h78v-469h-78z" />
    <glyph glyph-name="parenleft" unicode="(" horiz-adv-x="494" 
d="M467 -377h-70q-260 422 -264 922q4 512 268 952h72q-260 -442 -261 -944t255 -930z" />
    <glyph glyph-name="parenright" unicode=")" horiz-adv-x="494" 
d="M27 1497h69q260 -422 264 -922q-4 -512 -268 -952h-72q261 443 262 945t-255 929z" />
    <glyph glyph-name="asterisk" unicode="*" horiz-adv-x="721" 
d="M330 1462h59v-266l250 84l20 -57l-251 -84l155 -209l-45 -41l-158 217l-163 -217l-50 41l166 209l-254 84l19 57l252 -84v266z" />
    <glyph glyph-name="plus" unicode="+" horiz-adv-x="1229" 
d="M575 555v477h78v-477h477v-78h-477v-477h-78v477h-477v78h477z" />
    <glyph glyph-name="comma" unicode="," horiz-adv-x="569" 
d="M274 0h-43v211h105v-211q0 -205 -131 -258v68q69 34 69 190z" />
    <glyph glyph-name="hyphen" unicode="-" horiz-adv-x="721" 
d="M580 518h-439v78h439v-78z" />
    <glyph glyph-name="hyphen" unicode="&#xad;" horiz-adv-x="721" 
d="M580 518h-439v78h439v-78z" />
    <glyph glyph-name="period" unicode="." horiz-adv-x="569" 
d="M336 0h-105v211h105v-211z" />
    <glyph glyph-name="slash" unicode="/" horiz-adv-x="682" 
d="M57 -35h-84l652 1532h84z" />
    <glyph glyph-name="zero" unicode="0" 
d="M571 1368q-133 0 -217 -60t-132 -162q-48 -100 -68 -214t-19 -224q-1 -108 19 -222t68 -214t132 -164t217 -65q133 0 217 66q163 119 199 376q16 115 16 223t-16 224q-37 262 -198 376q-85 60 -218 60zM572 1438q284 0 409 -236q100 -186 100 -493q0 -306 -100 -494
q-111 -231 -412 -240q-297 9 -407 240q-58 107 -80 236q-25 129 -25 256q-4 270 105 495q57 107 157 172q101 64 253 64z" />
    <glyph glyph-name="one" unicode="1" 
d="M678 1413v-1413h-78v1261q-158 -159 -379 -180v68q254 43 387 264h70z" />
    <glyph glyph-name="two" unicode="2" 
d="M1036 78v-78h-942q6 100 47 180q39 80 99 144q126 124 286 224t283 215q123 116 127 290q-2 147 -104 231t-244 86q-193 -2 -287 -124t-94 -310h-78q29 502 446 502q187 0 312 -96t125 -284q0 -190 -118 -318t-276 -227t-283 -201q-124 -102 -143 -234h844z" />
    <glyph glyph-name="three" unicode="3" 
d="M74 467h78q4 -416 411 -424q164 0 283 90t123 258q-4 199 -150 273q-131 70 -325 53v67q180 -5 301 56q137 61 141 241q-4 149 -120 219t-253 70q-184 -2 -276 -112t-101 -291h-77q3 213 123 341t314 129t330 -82q134 -83 138 -274q-2 -127 -76 -215t-201 -108v-4
q145 -19 227 -117t82 -246q-4 -207 -142 -311t-341 -105q-489 7 -489 492z" />
    <glyph glyph-name="four" unicode="4" 
d="M747 428v879h-4l-606 -879h610zM825 1413v-985h238v-68h-238v-360h-78v360h-688v78l688 975h78z" />
    <glyph glyph-name="five" unicode="5" 
d="M981 1413v-68h-653l-121 -563l4 -4q131 170 349 169t348 -133t130 -346t-131 -351q-129 -140 -342 -140t-354 120t-135 335h78q2 -176 118 -280q115 -109 294 -108q178 1 286 123t108 299t-110 296q-111 117 -289 119q-233 0 -362 -199h-80l147 731h715z" />
    <glyph glyph-name="six" unicode="6" 
d="M606 1368q-144 0 -232 -72q-89 -72 -134 -186q-76 -194 -76 -475l4 -4q50 139 164 221t258 82q213 -2 342 -136t129 -344t-131 -341q-129 -136 -340 -138q-290 7 -398 201t-106 461q0 537 257 725q101 74 272 75t287 -95t136 -277h-78q-22 139 -116 221t-238 82zM592 45
q172 0 282 118t109 289q-1 172 -109 292t-285 120t-284 -119q-113 -117 -113 -295t117 -288q111 -117 283 -117z" />
    <glyph glyph-name="seven" unicode="7" 
d="M115 1345v68h911v-78q-217 -225 -385 -524t-223 -811h-90q16 302 142 630t478 715h-833z" />
    <glyph glyph-name="eight" unicode="8" 
d="M570 803q142 -1 250 65q106 66 106 220t-104 220q-104 64 -250 64t-252 -64t-107 -220q0 -154 111 -220q104 -65 246 -65zM570 -25q-208 0 -345 107q-143 106 -145 323q6 316 313 365v4q-260 62 -260 309q4 199 135 278t302 79t301 -79t134 -278q0 -247 -260 -309v-4
q308 -49 314 -365q-1 -217 -141 -323t-348 -107zM160 400q0 -182 120 -269q120 -88 290 -88q169 0 289 88q120 87 120 269t-119 258t-290 77q-171 0 -287 -76q-123 -77 -123 -259z" />
    <glyph glyph-name="nine" unicode="9" 
d="M1065 816q1 -171 -19 -310q-44 -315 -233 -453q-102 -76 -273 -76q-171 1 -287 97t-140 274h77q27 -137 121 -221q95 -84 237 -83t231 77q156 133 196 424q12 123 12 217l-4 4q-43 -121 -145 -203t-267 -84q-215 2 -344 137q-131 131 -131 345t135 343q131 132 340 134
q84 0 172 -21q200 -63 278 -298q44 -132 44 -303zM574 549q176 1 286 119t109 294q0 176 -111 290q-111 116 -285 116q-175 0 -287 -116t-112 -288q0 -174 113 -292q111 -123 287 -123z" />
    <glyph glyph-name="colon" unicode=":" horiz-adv-x="569" 
d="M336 0h-105v211h105v-211zM231 1053h105v-211h-105v211z" />
    <glyph glyph-name="semicolon" unicode=";" horiz-adv-x="569" 
d="M231 1053h105v-211h-105v211zM274 0h-43v211h105v-211q0 -205 -131 -258v68q69 34 69 190z" />
    <glyph glyph-name="less" unicode="&#x3c;" horiz-adv-x="1229" 
d="M1135 1053v-86l-973 -447l973 -450v-86l-1041 483v106z" />
    <glyph glyph-name="equal" unicode="=" horiz-adv-x="1229" 
d="M1130 358v-77h-1032v77h1032zM1130 756v-78h-1032v78h1032z" />
    <glyph glyph-name="greater" unicode="&#x3e;" horiz-adv-x="1229" 
d="M94 -16v86l973 446l-973 451v86l1041 -484v-106z" />
    <glyph glyph-name="question" unicode="?" horiz-adv-x="1063" 
d="M473 0v211h104v-211h-104zM166 1010h-78q0 221 117 353t338 134q167 0 283 -90t118 -277q0 -192 -180 -344q-145 -122 -182 -258q-21 -65 -21 -157h-78q1 159 53 255t130 166q78 68 139 150q59 82 61 188q-2 152 -99 220t-230 69q-185 -3 -278 -117t-93 -292z" />
    <glyph glyph-name="at" unicode="@" horiz-adv-x="1638" 
d="M1042 368q24 -20 56 -20q72 0 138 48t118 126q108 162 112 344q-4 262 -189 412t-423 151q-287 -4 -479 -208q-199 -201 -203 -498q4 -305 215 -496q205 -192 471 -194q358 6 563 311h90q-223 -371 -653 -379q-332 4 -545 227q-217 218 -219 545q4 326 225 539
q215 217 531 221q299 -2 493 -178q197 -174 201 -459q-4 -237 -154 -409q-145 -177 -315 -181q-53 0 -92 37t-43 109h-4q-103 -146 -275 -146q-118 2 -188 95q-74 87 -74 205q0 232 138 421q131 191 346 197q97 -2 157 -56t72 -131h4l47 146h84l-196 -606q-33 -93 -33 -123
t24 -50zM860 1120q-76 0 -148 -51t-124 -133q-109 -172 -111 -348q0 -115 64 -180q57 -70 134 -70q135 0 251 162q129 190 133 379q0 30 -4 71q-6 41 -25 80q-42 90 -170 90z" />
    <glyph glyph-name="A" unicode="A" horiz-adv-x="1214" 
d="M287 547h643l-314 827h-4zM563 1462h98l578 -1462h-96l-185 469h-700l-186 -469h-97z" />
    <glyph glyph-name="B" unicode="B" horiz-adv-x="1290" 
d="M219 1384v-585h496q368 8 370 301q-2 157 -110 223q-109 61 -260 61h-496zM129 0v1462h586q251 0 362 -117q98 -94 98 -262q-1 -117 -77 -205t-207 -106l4 -4q17 4 69 -10t111 -56q62 -38 107 -108q41 -74 43 -184q-1 -202 -139 -306t-371 -104h-586zM219 721v-643h496
q411 2 420 332q0 181 -136 249q-63 37 -135 52q-74 10 -149 10h-496z" />
    <glyph glyph-name="C" unicode="C" horiz-adv-x="1442" 
d="M164 733q0 -289 162 -485q155 -201 444 -205q218 5 362 161t160 365h90q-28 -266 -196 -430q-168 -170 -416 -174q-321 4 -507 221q-187 217 -187 547t182 543q180 217 512 221q194 -1 312 -69t178 -157t80 -161t18 -84h-90q-33 186 -170 289q-140 102 -328 104
q-289 -4 -444 -203q-162 -194 -162 -483z" />
    <glyph glyph-name="D" unicode="D" horiz-adv-x="1366" 
d="M129 0v1462h479q387 -6 537 -223q143 -215 139 -506q0 -317 -164 -524t-516 -209h-475zM219 1384v-1306h393q216 -4 396 140t186 515q-4 407 -217 553q-93 64 -195 81t-188 17h-375z" />
    <glyph glyph-name="E" unicode="E" horiz-adv-x="1147" 
d="M219 78h903v-78h-993v1462h983v-78h-893v-585h840v-78h-840v-643z" />
    <glyph glyph-name="F" unicode="F" horiz-adv-x="1053" 
d="M965 721h-746v-721h-90v1462h917v-78h-827v-585h746v-78z" />
    <glyph glyph-name="G" unicode="G" horiz-adv-x="1517" 
d="M782 717h617v-717h-78v311h-4q-57 -162 -207 -253t-346 -93q-321 4 -510 223q-178 212 -178 534t182 544q178 225 508 231q231 -2 399 -128t209 -359h-86q-110 401 -520 409q-295 -4 -446 -211q-156 -204 -156 -488t151 -476q150 -197 451 -201q266 2 414 164
q147 162 139 432h-539v78z" />
    <glyph glyph-name="H" unicode="H" horiz-adv-x="1372" 
d="M1153 721h-934v-721h-90v1462h90v-663h934v663h90v-1462h-90v721z" />
    <glyph glyph-name="I" unicode="I" horiz-adv-x="348" 
d="M129 0v1462h90v-1462h-90z" />
    <glyph glyph-name="J" unicode="J" horiz-adv-x="985" 
d="M454 43q295 0 310 291q2 76 2 151v977h90v-1007q0 -66 -6 -148q-14 -198 -158 -289q-84 -51 -234 -51q-268 0 -356 168q-66 129 -61 330h90q-10 -192 44 -291q71 -131 279 -131z" />
    <glyph glyph-name="K" unicode="K" horiz-adv-x="1255" 
d="M129 0v1462h90v-842l920 842h116l-667 -608l708 -854h-112l-662 793l-303 -277v-516h-90z" />
    <glyph glyph-name="L" unicode="L" horiz-adv-x="1024" 
d="M129 0v1462h90v-1384h830v-78h-920z" />
    <glyph glyph-name="M" unicode="M" horiz-adv-x="1657" 
d="M129 0v1462h129l571 -1362h4l566 1362h129v-1462h-90v1352h-5l-557 -1352h-90l-563 1352h-4v-1352h-90z" />
    <glyph glyph-name="N" unicode="N" horiz-adv-x="1388" 
d="M129 0v1462h113l923 -1341h4v1341h90v-1462h-106l-930 1352h-4v-1352h-90z" />
    <glyph glyph-name="O" unicode="O" horiz-adv-x="1517" 
d="M154 733q0 -289 161 -485q156 -201 445 -205q290 5 446 203t156 487t-156 485t-446 201q-289 -4 -445 -203q-161 -194 -161 -483zM1452 733q0 -330 -184 -547t-508 -221q-321 4 -507 221q-187 217 -190 545q3 332 185 545q180 217 512 221q332 -4 512 -219t180 -545z" />
    <glyph glyph-name="P" unicode="P" horiz-adv-x="1210" 
d="M129 0v1462h623q65 0 139 -12q71 -17 138 -60q149 -96 149 -337q-7 -398 -459 -402h-500v-651h-90zM219 1384v-655h514q100 0 170 33q68 28 107 76q43 47 61 104q16 58 16 108t-10 105q-36 135 -151 195q-70 34 -181 34h-526z" />
    <glyph glyph-name="Q" unicode="Q" horiz-adv-x="1517" 
d="M1173 98q-165 -131 -413 -133q-321 4 -507 221q-187 217 -190 545q3 332 185 545q180 217 512 221q332 -4 512 -219t182 -547q-2 -366 -219 -579l227 -164l-47 -64zM154 733q0 -289 161 -485q156 -201 445 -205q202 0 342 109l-221 157l47 64l235 -170q199 202 201 528
q-2 291 -158 487t-446 201q-289 -4 -445 -203q-161 -194 -161 -483z" />
    <glyph glyph-name="R" unicode="R" horiz-adv-x="1290" 
d="M739 666h-520v-666h-90v1462h610q199 2 330 -83t133 -294q-6 -309 -313 -374v-4q82 -11 137 -35q51 -29 82 -72q61 -90 65 -207q9 -117 10 -225t40 -168h-101q-34 82 -32 192q3 235 -29 320q-21 47 -60 80q-76 74 -262 74zM219 743h520q163 0 267 81t104 251t-109 242
q-108 67 -262 67h-520v-641z" />
    <glyph glyph-name="S" unicode="S" horiz-adv-x="1290" 
d="M213 1112q0 -88 45 -143q66 -93 250 -139q66 -16 110 -26q46 -9 93 -22q96 -16 184 -42q198 -57 274 -181q41 -72 41 -182q-6 -225 -172 -318q-162 -94 -342 -94q-262 0 -437 120t-179 398h90q-4 -235 150 -339t376 -101q158 0 279 74q65 39 106 102q39 64 39 158
t-41 153q-79 106 -274 152q-88 20 -185 37q-136 35 -202 53t-138 59t-112 107q-45 67 -45 170q3 211 157 300t334 89q236 0 391 -104q154 -109 168 -349h-90q-8 189 -135 283q-129 92 -334 92q-133 2 -262 -63q-59 -35 -98 -97q-41 -59 -41 -147z" />
    <glyph glyph-name="T" unicode="T" horiz-adv-x="1063" 
d="M485 1384h-514v78h1121v-78h-517v-1384h-90v1384z" />
    <glyph glyph-name="U" unicode="U" horiz-adv-x="1376" 
d="M129 1462h90v-876q0 -190 73 -336q44 -88 137 -146t249 -61q266 2 377 147q104 144 102 396v876h90v-876q2 -267 -122 -442t-447 -179q-192 1 -304 69t-164 168q-87 168 -81 384v876z" />
    <glyph glyph-name="V" unicode="V" 
d="M66 1462l501 -1384h4l506 1384h90l-547 -1462h-104l-545 1462h95z" />
    <glyph glyph-name="W" unicode="W" horiz-adv-x="1821" 
d="M410 0l-422 1462h92l381 -1366h4l387 1366h113l393 -1366h4l375 1366h96l-420 -1462h-102l-402 1384h-4l-395 -1384h-100z" />
    <glyph glyph-name="X" unicode="X" 
d="M514 752l-512 710h104l463 -643l473 643h103l-516 -710l544 -752h-108l-496 684l-497 -684h-107z" />
    <glyph glyph-name="Y" unicode="Y" horiz-adv-x="1175" 
d="M631 0h-90v612l-584 850h102l529 -774l530 774h100l-587 -850v-612z" />
    <glyph glyph-name="Z" unicode="Z" horiz-adv-x="1100" 
d="M57 1384v78h1026v-78l-991 -1306h1010v-78h-1104v78l987 1306h-928z" />
    <glyph glyph-name="bracketleft" unicode="[" horiz-adv-x="494" 
d="M473 1429h-203v-1738h203v-68h-281v1874h281v-68z" />
    <glyph glyph-name="backslash" unicode="\" horiz-adv-x="682" 
d="M709 -35h-84l-652 1532h84z" />
    <glyph glyph-name="bracketright" unicode="]" horiz-adv-x="494" 
d="M20 -309h203v1738h-203v68h281v-1874h-281v68z" />
    <glyph glyph-name="asciicircum" unicode="^" horiz-adv-x="1229" 
d="M1149 485h-86l-447 860l-450 -860h-86l483 928h107z" />
    <glyph glyph-name="underscore" unicode="_" horiz-adv-x="1024" 
d="M1024 -256h-1024v102h1024v-102z" />
    <glyph glyph-name="grave" unicode="`" horiz-adv-x="342" 
d="M289 1210h-76l-274 287h104z" />
    <glyph glyph-name="a" unicode="a" horiz-adv-x="1024" 
d="M960 68q21 0 58 6v-66q-33 -8 -64 -8q-90 0 -114 47q-29 41 -27 107v55h-4q-37 -94 -139 -163t-252 -70q-152 -1 -251 66t-101 230q0 170 130 245q58 34 109 45q102 22 148 22q251 14 313 55q35 25 42 63t7 79q0 42 -11 76q-26 80 -132 130q-58 23 -150 23
q-295 -2 -323 -281h-78q22 348 401 348q144 1 256 -57t113 -217v-608q-2 -48 10 -86q10 -41 59 -41zM813 401v197q-23 -25 -68 -40t-313 -42q-287 -18 -289 -244q0 -98 72 -161q68 -66 204 -67t214 50q136 76 170 230q10 57 10 77z" />
    <glyph glyph-name="b" unicode="b" 
d="M133 0v1462h78v-633h4q49 125 159 187t240 61q234 -2 346 -151q111 -150 110 -356t-50 -319q-49 -114 -121 -175q-125 -101 -291 -99t-291 109q-92 98 -102 150h-4v-236h-78zM993 546q0 186 -94 323q-94 136 -285 141q-204 -2 -302 -129t-100 -329q-1 -202 95 -351
q94 -154 307 -158q192 0 295 164q84 153 84 339z" />
    <glyph glyph-name="c" unicode="c" horiz-adv-x="1063" 
d="M145 524q-1 -202 101 -340t305 -141q149 2 247 91t119 237h78q-26 -189 -148 -291t-296 -105q-255 5 -369 171t-114 392t124 380t359 159q176 0 296 -85t138 -265h-78q-12 141 -110 213q-99 70 -246 70q-197 -5 -299 -146q-107 -138 -107 -340z" />
    <glyph glyph-name="d" unicode="d" 
d="M928 0v225h-4q-125 -250 -404 -250q-235 5 -344 166q-114 159 -112 391t118 388t352 157q134 0 243 -68t147 -192h4v645h77v-1462h-77zM926 526q0 190 -94 335q-94 144 -298 149q-206 -5 -300 -146q-94 -140 -92 -336q1 -196 98 -336q94 -145 297 -149q200 4 294 152
q95 141 95 331z" />
    <glyph glyph-name="e" unicode="e" horiz-adv-x="1063" 
d="M145 584h772q-4 172 -102 297q-100 124 -283 129q-176 -5 -274 -134t-113 -292zM995 516h-850q-2 -190 97 -328q96 -143 290 -145q310 4 377 313h78q-70 -376 -455 -381q-230 5 -348 157t-116 376q-5 227 112 396t352 173q248 -5 362 -165t101 -396z" />
    <glyph glyph-name="f" unicode="f" horiz-adv-x="494" 
d="M188 985h-188v68h188v217q0 110 67 160t165 49q47 0 92 -11v-67q-46 10 -102 10q-56 1 -100 -29t-44 -118v-211h219v-68h-219v-985h-78v985z" />
    <glyph glyph-name="g" unicode="g" horiz-adv-x="1100" 
d="M907 1053h78v-998q-1 -287 -191 -400q-94 -56 -265 -56q-171 1 -285 75t-125 252h78q16 -136 109 -198q92 -62 228 -61t213 50q78 45 113 111q47 89 47 209v242h-4q-113 -238 -381 -240q-230 1 -342 149t-112 368t116 368t338 153q127 0 232 -61q104 -62 149 -183h4v220z
M145 553q0 -182 97 -311q96 -133 280 -136q195 3 289 140q94 129 94 313t-94 315t-289 136q-190 -5 -284 -140t-93 -317z" />
    <glyph glyph-name="h" unicode="h" horiz-adv-x="1063" 
d="M115 1462h77v-635h5q43 121 147 185t236 64q132 -1 210 -47q133 -79 154 -255q4 -72 4 -123v-651h-78v666q0 43 -4 102q-8 58 -36 114q-61 125 -259 128q-175 -2 -277 -123t-102 -318v-569h-77v1462z" />
    <glyph glyph-name="i" unicode="i" horiz-adv-x="344" 
d="M211 1251h-78v211h78v-211zM211 0h-78v1053h78v-1053z" />
    <glyph glyph-name="j" unicode="j" horiz-adv-x="344" 
d="M211 1251h-78v211h78v-211zM133 1053h78v-1166q0 -126 -39 -184q-43 -78 -176 -80q-33 0 -66 2v68q19 -4 52 -4q81 0 118 43q33 45 33 162v1159z" />
    <glyph glyph-name="k" unicode="k" horiz-adv-x="948" 
d="M119 0v1462h78v-968l649 559h112l-460 -394l493 -659h-106l-449 600l-239 -203v-397h-78z" />
    <glyph glyph-name="l" unicode="l" horiz-adv-x="344" 
d="M133 1462h78v-1462h-78v1462z" />
    <glyph glyph-name="m" unicode="m" horiz-adv-x="1630" 
d="M117 0v1053h78v-215h4q27 104 119 170t189 68q164 2 249 -68q75 -68 90 -154h4q86 221 334 223q147 0 237 -86t92 -272v-719h-77v721q0 184 -103 246q-63 43 -149 43q-144 0 -237 -98t-93 -289v-623h-78v721q0 179 -98 244q-62 45 -165 45t-209 -92t-109 -295v-623h-78z
" />
    <glyph glyph-name="n" unicode="n" horiz-adv-x="1063" 
d="M115 0v1053h77v-226h5q43 121 147 185t236 64q132 -1 210 -47q133 -79 154 -255q4 -72 4 -123v-651h-78v666q0 43 -4 102q-8 58 -36 114q-61 125 -259 128q-175 -2 -277 -123t-102 -318v-569h-77z" />
    <glyph glyph-name="o" unicode="o" horiz-adv-x="1100" 
d="M143 528q0 -196 107 -336q102 -145 299 -149q201 5 303 147t102 338t-102 336.5t-303 145.5q-197 -5 -299 -146q-107 -140 -107 -336zM66 528q0 230 126 388t357 161q235 -3 359 -161t124 -388t-124 -390q-124 -158 -359 -163q-231 5 -357 163q-126 160 -126 390z" />
    <glyph glyph-name="p" unicode="p" 
d="M211 1053v-242h4q25 88 118 175t265 91q242 -5 358 -163t115 -396q1 -238 -115 -389q-116 -152 -358 -154q-130 -1 -232 59t-151 185h-4v-596h-78v1430h78zM993 520q0 194 -92 339q-92 146 -303 151q-207 -5 -297 -147.5t-90 -336.5t85 -336t302 -147q205 2 303 143
q92 140 92 334z" />
    <glyph glyph-name="q" unicode="q" 
d="M928 -377v613h-4q-44 -125 -150 -192t-240 -69q-236 5 -352 161t-118 386q-2 232 112 391q109 160 344 164q279 0 404 -250h4v226h77v-1430h-77zM926 528q0 190 -94 333q-94 144 -295 149q-203 -5 -299 -146q-96 -140 -96 -336q-1 -196 94 -336q92 -145 298 -149
q204 3 298 149t94 336z" />
    <glyph glyph-name="r" unicode="r" horiz-adv-x="569" 
d="M192 1053v-234h7q34 107 146 175t257 65v-78q-63 11 -140 -11q-76 -22 -142 -84t-94 -128t-34 -183v-575h-77v1053h77z" />
    <glyph glyph-name="s" unicode="s" horiz-adv-x="985" 
d="M500 43q222 0 301 115q32 44 32 110t-28 109q-31 43 -84 65q-61 31 -189 56q-127 24 -190 44t-117 50q-53 33 -82 84q-32 51 -32 164t125 182q116 57 272 56t264 -77q107 -79 109 -260h-78q-2 144 -88 207q-88 62 -212 62t-216 -43q-99 -58 -99 -160q0 -62 33 -100
q45 -60 135 -84q27 -9 58 -19q71 -13 125 -29q161 -22 266 -86q106 -69 106 -223.5t-135 -228.5q-111 -62 -285 -62q-175 -1 -291 95t-126 280h78q12 -145 108 -226t240 -81z" />
    <glyph glyph-name="t" unicode="t" horiz-adv-x="530" 
d="M502 1053v-68h-230v-735q0 -123 58 -156t170 -26v-68q-60 -4 -115 3q-198 25 -190 247v735h-195v68h195v327h77v-327h230z" />
    <glyph glyph-name="u" unicode="u" horiz-adv-x="1063" 
d="M948 1053v-1053h-78v225h-4q-42 -116 -146 -182t-236 -66t-208 50q-77 45 -119 131t-42 243v652h77v-666q0 -118 44 -211q30 -57 90 -92q59 -41 165 -41q181 2 279 125q100 119 100 315v570h78z" />
    <glyph glyph-name="v" unicode="v" horiz-adv-x="909" 
d="M913 1053l-397 -1053h-96l-424 1053h90l381 -963h4l356 963h86z" />
    <glyph glyph-name="w" unicode="w" horiz-adv-x="1442" 
d="M80 1053l297 -963h4l287 963h104l289 -963h4l295 963h86l-338 -1053h-96l-289 954h-4l-291 -954h-98l-334 1053h84z" />
    <glyph glyph-name="x" unicode="x" horiz-adv-x="909" 
d="M-12 0l413 553l-385 500h109l330 -441l331 441h101l-381 -500l416 -553h-107l-360 494l-369 -494h-98z" />
    <glyph glyph-name="y" unicode="y" horiz-adv-x="909" 
d="M100 -309q82 0 132 14t88 55q40 41 108 246l-440 1047h92l391 -961l360 961h88l-450 -1166q-61 -163 -123 -217q-76 -51 -246 -47v68z" />
    <glyph glyph-name="z" unicode="z" horiz-adv-x="872" 
d="M854 68v-68h-836v74l707 911h-651v68h747v-74l-708 -911h741z" />
    <glyph glyph-name="braceleft" unicode="{" horiz-adv-x="682" 
d="M395 897q0 -260 -143 -332q12 -8 37 -22q58 -45 90 -152q16 -63 16 -168v-321q-1 -115 23 -163t84 -48h98v-68h-102q-86 -1 -134 53t-47 189v323q0 131 -28 228q-31 96 -119 104v78q125 11 142 212q5 58 5 120v325q-1 140 47 192t134 50h102v-68h-98q-60 0 -84 -45
q-23 -51 -23 -166v-321z" />
    <glyph glyph-name="bar" unicode="|" horiz-adv-x="455" 
d="M188 -438v2048h78v-2048h-78z" />
    <glyph glyph-name="braceright" unicode="}" horiz-adv-x="682" 
d="M82 -377v68h98q64 0 86 48t21 163v321q0 233 112 320q23 14 31 22q-8 5 -30 21t-50 49q-63 97 -63 262v321q0 115 -21 166q-22 45 -86 45h-98v68h102q86 2 134 -50t47 -192v-325q-3 -127 30 -226q29 -98 117 -106v-78q-42 0 -72 -28t-54 -101q-24 -72 -21 -203v-323
q1 -135 -47 -189t-134 -53h-102z" />
    <glyph glyph-name="asciitilde" unicode="~" horiz-adv-x="1229" 
d="M384 625q75 0 134 -20t157 -70q97 -50 161 -49t112 53q51 49 76 100l57 -57q-39 -68 -98 -117q-61 -55 -150 -57q-104 2 -233 77q-35 21 -90 41t-98 21q-88 -2 -136 -51q-47 -50 -67 -103l-60 62q48 82 104 126t131 44z" />
    <glyph glyph-name="Euro" 
d="M698 43q233 0 371 160v-94q-144 -134 -393 -134t-391 201q-108 151 -127 373h-133l30 67h99q-11 105 0 197h-129l30 68h103q14 195 130 376t392 181q169 0 267 -61q99 -61 138 -158l-43 -78q-32 108 -124 168q-92 61 -228 61q-255 0 -346 -163t-106 -326h680l-31 -68
h-656q-8 -82 0 -197h580l-31 -67h-540q19 -192 117 -338t202.5 -157t138.5 -11z" />
    <glyph glyph-name="Euro" unicode="&#x20ac;" 
d="M698 43q233 0 371 160v-94q-144 -134 -393 -134t-391 201q-108 151 -127 373h-133l30 67h99q-11 105 0 197h-129l30 68h103q14 195 130 376t392 181q169 0 267 -61q99 -61 138 -158l-43 -78q-32 108 -124 168q-92 61 -228 61q-255 0 -346 -163t-106 -326h680l-31 -68
h-656q-8 -82 0 -197h580l-31 -67h-540q19 -192 117 -338t202.5 -157t138.5 -11z" />
    <glyph glyph-name="exclamdown" unicode="&#xa1;" horiz-adv-x="530" 
d="M213 1096h104v-211h-104v211zM313 -377h-98v494l25 594h49l24 -594v-494z" />
    <glyph glyph-name="cent" unicode="&#xa2;" 
d="M557 -242v217q-237 21 -345 181t-108 380t119 373q115 154 334 168v182h66v-182q163 -6 274 -92q106 -88 125 -258h-78q-12 133 -99 203t-222 80v-967q137 14 225 102t106 226h78q-70 -365 -409 -396v-217h-66zM182 524q0 -196 94 -330t281 -151v967q-183 -19 -279 -155
q-96 -135 -96 -331z" />
    <glyph glyph-name="sterling" unicode="&#xa3;" 
d="M383 133q74 0 125 -12q53 -17 136 -48q186 -69 306 15q64 39 119 94l45 -67q-59 -64 -139 -106t-156 -43t-129 16q-55 12 -106 28q-101 45 -186 45q-85 -1 -139 -25t-118 -65l-51 70q90 83 160 187t72 237q-3 131 -60 217h-160v67h123q-47 82 -85 172t-38 189
q2 194 140 294t325 99q486 0 482 -506h-78q6 424 -402 428q-181 0 -285 -83t-103 -210t46 -215t86 -168h328v-67h-289q45 -64 47 -221q-2 -117 -60 -219t-142 -173l4 -4q108 74 182 74z" />
    <glyph glyph-name="currency" unicode="&#xa4;" 
d="M985 708q0 184 -121 305q-121 122 -295 122t-293 -123q-122 -120 -122 -304t122 -305q119 -124 293 -127q174 4 295 126t121 306zM568 199q-182 0 -328 125l-113 -115l-55 55l114 113q-123 149 -124 331t124 328l-116 115l55 55l115 -114q146 120 328 121t331 -124
l111 113l55 -55l-113 -111q125 -148 125 -330t-125 -327l111 -111l-55 -55l-109 111q-149 -125 -331 -125z" />
    <glyph glyph-name="yen" unicode="&#xa5;" 
d="M854 700v-67h-246v-160h246v-68h-246v-405h-78v405h-245v68h245v160h-245v67h188l-487 762h98l487 -766l490 766h92l-487 -762h188z" />
    <glyph glyph-name="brokenbar" unicode="&#xa6;" horiz-adv-x="455" 
d="M188 842v512h78v-512h-78zM188 -182v512h78v-512h-78z" />
    <glyph glyph-name="section" unicode="&#xa7;" 
d="M919 1098h-77q6 131 -67 230t-212 101q-94 2 -174 -55t-88 -160q2 -135 117 -217q108 -84 212 -134q206 -99 285 -173q113 -92 115 -254q0 -116 -64 -184t-163 -94q61 -54 89 -109t27 -143q-2 -152 -101 -218t-260 -64q-161 1 -257 112q-98 108 -98 282h78
q5 -139 75 -232t217 -95q265 0 269 215q-2 133 -114 216t-255 152q-157 86 -263 178t-104 238q3 100 72 172q64 72 156 103q-70 57 -92 133q-27 75 -19 116q3 129 105 208t235 75q178 -3 267 -109t89 -290zM950 440q0 104 -82 174q-82 72 -174 121l-311 184
q-73 -27 -135 -85t-63 -126t21 -109q22 -40 52 -75q43 -41 147 -110q170 -101 338 -207q21 -1 63 21t75 48q69 60 69 164z" />
    <glyph glyph-name="dieresis" unicode="&#xa8;" horiz-adv-x="342" 
d="M377 1216h-90v211h90v-211zM53 1216h-90v211h90v-211z" />
    <glyph glyph-name="copyright" unicode="&#xa9;" horiz-adv-x="1638" 
d="M819 1497q328 -4 545 -221t221 -545q-4 -323 -221 -543t-545 -223q-323 4 -540 225q-222 218 -226 541q4 328 226 545q217 217 540 221zM457 738q0 -179 104 -298q100 -125 281 -127q127 0 202 76q78 70 105 186h78q-23 -149 -129 -239t-256 -90q-211 2 -334 141
q-127 137 -128 349t124 345q119 131 332 133q153 0 262 -79q108 -84 129 -238h-78q-60 246 -311 250q-183 -2 -282 -116t-99 -293zM133 734q0 -300 199 -496q190 -201 489 -205q301 5 491 205t195 495q-1 301 -193 497t-493 199q-301 -4 -491 -200q-197 -195 -197 -495z" />
    <glyph glyph-name="ordfeminine" unicode="&#xaa;" horiz-adv-x="635" 
d="M324 1382q-84 0 -138 -41q-53 -43 -61 -120h-66q27 215 271 217q100 0 174 -33q71 -39 73 -141v-365q-2 -29 7 -51q4 -25 30 -25q13 0 37 4v-55q-22 -4 -41 -4q-57 0 -73 29q-21 26 -19 63v29h-4q-18 -58 -84 -96q-66 -43 -168 -45t-166 45q-69 40 -69 150t84 157
q77 39 204 45t166 30q35 25 33 99q0 108 -190 108zM261 805q83 0 134 31q91 46 110 138q7 34 7 46v115q-32 -29 -100 -35t-140 -15q-178 -14 -180 -139q0 -59 45 -98q41 -43 124 -43z" />
    <glyph glyph-name="guillemotleft" unicode="&#xab;" horiz-adv-x="797" 
d="M633 248l-234 268v82l234 268v-104l-174 -205l174 -209v-100zM371 248l-234 268v82l234 268v-104l-174 -205l174 -209v-100z" />
    <glyph glyph-name="logicalnot" unicode="&#xac;" horiz-adv-x="1229" 
d="M1053 221v457h-955v78h1032v-535h-77z" />
    <glyph glyph-name="registered" unicode="&#xae;" horiz-adv-x="1638" 
d="M819 1497q328 -4 545 -221t221 -545q-4 -323 -221 -543t-545 -223q-323 4 -540 225q-222 218 -226 541q4 328 226 545q217 217 540 221zM133 736q0 -300 199 -498q190 -201 489 -205q301 5 491 205t195 495q-1 301 -193 497t-493 199q-301 -4 -491 -200
q-197 -193 -197 -493zM618 1116v-352h193q84 0 155 15t107 67q25 33 25 90q-2 102 -72 143q-72 37 -158 37h-250zM541 279v905h340q297 -2 294 -250q-2 -109 -65 -166q-68 -57 -168 -74l270 -415h-86l-272 417h-236v-417h-77z" />
    <glyph glyph-name="macron" unicode="&#xaf;" horiz-adv-x="342" 
d="M420 1288h-496v68h496v-68z" />
    <glyph glyph-name="degree" unicode="&#xb0;" horiz-adv-x="819" 
d="M411 854q-126 0 -209 83t-83 209t83 208t209 82q125 0 207 -82t82 -208t-82 -209t-207 -83zM195 1146q0 -95 63 -159q57 -65 152 -68q94 3 154 67t59 160q1 94 -59 158t-154 64t-152 -64q-63 -63 -63 -158z" />
    <glyph glyph-name="plusminus" unicode="&#xb1;" horiz-adv-x="1229" 
d="M98 0v78h1032v-78h-1032zM575 645v387h78v-387h477v-78h-477v-387h-78v387h-477v78h477z" />
    <glyph glyph-name="twosuperior" unicode="&#xb2;" horiz-adv-x="682" 
d="M647 618v-55h-614q7 111 92 205q83 78 187 138t182 128t80 152q1 84 -52 139q-55 55 -174 57q-231 -6 -233 -254h-66q9 142 75 225t208 84q305 2 309 -241q-2 -100 -79 -176t-177 -136t-177 -117q-77 -56 -110 -149h549z" />
    <glyph glyph-name="threesuperior" unicode="&#xb3;" horiz-adv-x="682" 
d="M356 600q114 0 191 53q76 54 78 148q-1 112 -95 153t-213 31v55q121 0 195 33q90 35 92 141q-2 86 -78 129q-76 39 -176 38t-160 -64q-59 -66 -65 -172h-66q9 286 318 293q114 0 203 -50q88 -53 90 -174q0 -76 -48 -128t-133 -66v-4q97 -11 150 -68q51 -59 51 -147
q-2 -129 -91 -193t-222 -63q-344 0 -340 305h65q-2 -115 70 -180q70 -70 184 -70z" />
    <glyph glyph-name="acute" unicode="&#xb4;" horiz-adv-x="342" 
d="M53 1210l246 287h104l-274 -287h-76z" />
    <glyph glyph-name="mu" unicode="&#xb5;" horiz-adv-x="1063" 
d="M192 90v-467h-77v1430h77v-666q0 -118 44 -211q30 -57 90 -92q59 -41 165 -41q181 2 279 125q100 119 100 315v570h78v-1053h-78v225h-4q-42 -116 -146 -182t-231 -68q-195 0 -292 115h-5z" />
    <glyph glyph-name="paragraph" unicode="&#xb6;" horiz-adv-x="1229" 
d="M559 -299v963q-182 2 -301 120q-121 113 -123 277q6 399 457 401h444v-1761h-78v1694h-321v-1694h-78z" />
    <glyph glyph-name="periodcentered" unicode="&#xb7;" horiz-adv-x="569" 
d="M174 650q0 44 34 77t78 32t79 -30q32 -33 32 -79q-1 -46 -33 -80t-77 -33q-45 0 -78 36q-35 33 -35 77z" />
    <glyph glyph-name="periodcentered" unicode="&#x2219;" horiz-adv-x="569" 
d="M174 650q0 44 34 77t78 32t79 -30q32 -33 32 -79q-1 -46 -33 -80t-77 -33q-45 0 -78 36q-35 33 -35 77z" />
    <glyph glyph-name="cedilla" unicode="&#xb8;" horiz-adv-x="342" 
d="M297 -250q-4 94 -117 94q-47 0 -92 -24l-33 26l115 154h70l-99 -115l4 -4q36 19 87 20t96 -35t46 -115q2 -79 -56 -115t-152 -37q-131 4 -184 43l22 49q101 -35 157 -36q132 -3 136 95z" />
    <glyph glyph-name="onesuperior" unicode="&#xb9;" horiz-adv-x="682" 
d="M426 1419v-856h-66v760q-94 -96 -239 -109v56q158 26 246 149h59z" />
    <glyph glyph-name="ordmasculine" unicode="&#xba;" horiz-adv-x="684" 
d="M344 1380q-132 0 -196 -84t-64 -202t64 -202q64 -85 196 -85t194 85q62 84 62 202t-59 202q-64 84 -197 84zM18 1094q0 150 84 246t241 96t240 -96t83 -246t-83 -246t-240 -96t-241 96t-84 246z" />
    <glyph glyph-name="guillemotright" unicode="&#xbb;" horiz-adv-x="797" 
d="M426 248v100l174 209l-174 205v104l233 -268v-82zM164 248v100l174 209l-174 205v104l233 -268v-82z" />
    <glyph glyph-name="onequarter" unicode="&#xbc;" horiz-adv-x="1708" 
d="M1313 268v512h-4l-363 -512h367zM1378 848v-580h146v-55h-146v-213h-65v213h-441v55l410 580h96zM498 1419v-856h-66v760q-94 -96 -240 -109v56q158 26 246 149h60zM309 -49l952 1511h82l-952 -1511h-82z" />
    <glyph glyph-name="onehalf" unicode="&#xbd;" horiz-adv-x="1708" 
d="M1603 55v-55h-614q7 111 92 205q83 78 187 137t183 128t80 153t-52 139q-56 55 -175 57q-231 -6 -233 -254h-66q9 143 75 225t209 83q304 2 308 -240q-3 -101 -79 -177t-176 -136t-177 -116q-76 -56 -106 -149h544zM436 1419v-856h-65v760q-95 -96 -240 -109v56
q158 26 246 149h59zM248 -49l952 1511h82l-952 -1511h-82z" />
    <glyph glyph-name="threequarters" unicode="&#xbe;" horiz-adv-x="1708" 
d="M1374 268v512h-4l-362 -512h366zM1440 848v-580h145v-55h-145v-213h-66v213h-440v55l409 580h97zM405 -49l953 1511h82l-953 -1511h-82zM386 600q114 0 191 53q76 54 78 148q-2 112 -95 153t-212 31v55q117 0 195 33q90 35 92 141q-2 86 -78 129q-76 39 -176 38t-160 -64
q-59 -66 -65 -172h-66q8 286 318 293q114 0 202 -52t90 -172q0 -76 -48 -128t-132 -66v-4q96 -11 150 -68q51 -59 51 -147q-2 -129 -91 -193t-222 -63q-345 0 -340 305h65q-2 -115 70 -180q69 -70 183 -70z" />
    <glyph glyph-name="questiondown" unicode="&#xbf;" horiz-adv-x="1063" 
d="M588 1096v-211h-105v211h105zM895 86h78q0 -221 -115 -353t-340 -134q-168 0 -280 92q-119 90 -121 274q0 129 57 207q29 39 59 76q31 33 97 91t100 114q70 114 70 272h77q-2 -160 -53 -256q-51 -97 -128 -165t-138 -150t-63 -189q2 -149 100 -219t229 -70q187 4 279 118
t92 292z" />
    <glyph glyph-name="Agrave" unicode="&#xc0;" horiz-adv-x="1214" 
d="M287 547h643l-314 827h-4zM563 1462h98l578 -1462h-96l-185 469h-700l-186 -469h-97zM736 1564h-76l-274 287h104z" />
    <glyph glyph-name="Aacute" unicode="&#xc1;" horiz-adv-x="1214" 
d="M287 547h643l-314 827h-4zM563 1462h98l578 -1462h-96l-185 469h-700l-186 -469h-97zM505 1564l246 287h104l-274 -287h-76z" />
    <glyph glyph-name="Acircumflex" unicode="&#xc2;" horiz-adv-x="1214" 
d="M287 547h643l-314 827h-4zM563 1462h98l578 -1462h-96l-185 469h-700l-186 -469h-97zM575 1851h82l237 -287h-77l-201 236l-199 -236h-77z" />
    <glyph glyph-name="Atilde" unicode="&#xc3;" horiz-adv-x="1214" 
d="M287 547h643l-314 827h-4zM563 1462h98l578 -1462h-96l-185 469h-700l-186 -469h-97zM768 1654q36 0 60 38t27 79h59q-8 -74 -43 -125q-35 -57 -113 -59q-36 1 -72 21t-69 38q-70 53 -143 58q-75 -5 -93 -117h-59q6 71 47 127t111 57q38 -1 72 -17t71 -36t74 -41
q35 -23 71 -23z" />
    <glyph glyph-name="Adieresis" unicode="&#xc4;" horiz-adv-x="1214" 
d="M287 547h643l-314 827h-4zM563 1462h98l578 -1462h-96l-185 469h-700l-186 -469h-97zM826 1570h-90v211h90v-211zM502 1570h-90v211h90v-211z" />
    <glyph glyph-name="Aring" unicode="&#xc5;" horiz-adv-x="1214" 
d="M287 547h643l-314 827h-4zM563 1462h98l578 -1462h-96l-185 469h-700l-186 -469h-97zM608 1841q-64 0 -104 -41q-42 -40 -42 -104t43 -105q39 -43 103 -43t105 42t41 106t-41 104q-41 41 -105 41zM810 1697q0 -87 -56 -145t-144 -59q-86 1 -144 59t-58 145t58 143t144 56
q87 0 144 -55q56 -57 56 -144z" />
    <glyph glyph-name="AE" unicode="&#xc6;" horiz-adv-x="1782" 
d="M883 598v786h-97l-411 -786h508zM1749 1462v-78h-776v-585h716v-78h-716v-643h778v-78h-868v520h-549l-271 -520h-81l763 1462h1004z" />
    <glyph glyph-name="Ccedilla" unicode="&#xc7;" horiz-adv-x="1442" 
d="M848 -250q-4 94 -117 94q-47 0 -92 -24l-33 26l90 123q-298 35 -460 245t-161 530t183 532q180 217 512 221q194 -1 312 -69t178 -157t80 -161t18 -84h-90q-33 186 -170 289q-140 102 -328 104q-289 -4 -444 -203q-162 -194 -162 -483t162 -485q155 -201 444 -205
q218 5 362 161t160 365h90q-28 -266 -196 -430q-168 -170 -416 -174h-10l-68 -80l4 -4q36 19 86 20t96 -35t47 -115t-57 -115t-151 -37q-131 4 -185 43l23 49q101 -35 157 -36q132 -3 136 95z" />
    <glyph glyph-name="Egrave" unicode="&#xc8;" horiz-adv-x="1147" 
d="M219 78h903v-78h-993v1462h983v-78h-893v-585h840v-78h-840v-643zM699 1564h-76l-274 287h104z" />
    <glyph glyph-name="Eacute" unicode="&#xc9;" horiz-adv-x="1147" 
d="M219 78h903v-78h-993v1462h983v-78h-893v-585h840v-78h-840v-643zM468 1564l246 287h104l-274 -287h-76z" />
    <glyph glyph-name="Ecircumflex" unicode="&#xca;" horiz-adv-x="1147" 
d="M219 78h903v-78h-993v1462h983v-78h-893v-585h840v-78h-840v-643zM537 1851h82l237 -287h-77l-201 236l-199 -236h-77z" />
    <glyph glyph-name="Edieresis" unicode="&#xcb;" horiz-adv-x="1147" 
d="M219 78h903v-78h-993v1462h983v-78h-893v-585h840v-78h-840v-643zM809 1570h-90v211h90v-211zM485 1570h-90v211h90v-211z" />
    <glyph glyph-name="Igrave" unicode="&#xcc;" horiz-adv-x="348" 
d="M129 0v1462h90v-1462h-90zM289 1564h-76l-274 287h104z" />
    <glyph glyph-name="Iacute" unicode="&#xcd;" horiz-adv-x="348" 
d="M129 0v1462h90v-1462h-90zM54 1564l246 287h104l-274 -287h-76z" />
    <glyph glyph-name="Icircumflex" unicode="&#xce;" horiz-adv-x="348" 
d="M129 0v1462h90v-1462h-90zM128 1851h82l237 -287h-77l-201 236l-199 -236h-77z" />
    <glyph glyph-name="Idieresis" unicode="&#xcf;" horiz-adv-x="348" 
d="M129 0v1462h90v-1462h-90zM377 1570h-90v211h90v-211zM53 1570h-90v211h90v-211z" />
    <glyph glyph-name="Eth" unicode="&#xd0;" horiz-adv-x="1366" 
d="M219 811h541v-68h-541v-665h393q216 -4 396 140t186 515q-4 407 -217 553q-93 64 -195 81t-188 17h-375v-573zM129 811v651h479q387 -6 537 -223q143 -215 139 -506q0 -317 -164 -524t-516 -209h-475v743h-139v68h139z" />
    <glyph glyph-name="Ntilde" unicode="&#xd1;" horiz-adv-x="1388" 
d="M129 0v1462h113l923 -1341h4v1341h90v-1462h-106l-930 1352h-4v-1352h-90zM854 1654q36 0 60 38t26 79h59q-8 -74 -43 -125q-35 -57 -113 -59q-37 1 -73 21t-68 38q-70 53 -143 58q-75 -5 -93 -117h-59q6 71 47 127t111 57q37 -1 71 -17t72 -36q37 -20 74 -41
q36 -23 72 -23z" />
    <glyph glyph-name="Ograve" unicode="&#xd2;" horiz-adv-x="1517" 
d="M154 733q0 -289 161 -485q156 -201 445 -205q290 5 446 203t156 487t-156 485t-446 201q-289 -4 -445 -203q-161 -194 -161 -483zM1452 733q0 -330 -184 -547t-508 -221q-321 4 -507 221q-187 217 -190 545q3 332 185 545q180 217 512 221q332 -4 512 -219t180 -545z
M891 1564h-76l-274 287h104z" />
    <glyph glyph-name="Oacute" unicode="&#xd3;" horiz-adv-x="1517" 
d="M154 733q0 -289 161 -485q156 -201 445 -205q290 5 446 203t156 487t-156 485t-446 201q-289 -4 -445 -203q-161 -194 -161 -483zM1452 733q0 -330 -184 -547t-508 -221q-321 4 -507 221q-187 217 -190 545q3 332 185 545q180 217 512 221q332 -4 512 -219t180 -545z
M657 1564l246 287h104l-274 -287h-76z" />
    <glyph glyph-name="Ocircumflex" unicode="&#xd4;" horiz-adv-x="1517" 
d="M154 733q0 -289 161 -485q156 -201 445 -205q290 5 446 203t156 487t-156 485t-446 201q-289 -4 -445 -203q-161 -194 -161 -483zM1452 733q0 -330 -184 -547t-508 -221q-321 4 -507 221q-187 217 -190 545q3 332 185 545q180 217 512 221q332 -4 512 -219t180 -545z
M729 1851h82l237 -287h-77l-201 236l-199 -236h-77z" />
    <glyph glyph-name="Otilde" unicode="&#xd5;" horiz-adv-x="1517" 
d="M154 733q0 -289 161 -485q156 -201 445 -205q290 5 446 203t156 487t-156 485t-446 201q-289 -4 -445 -203q-161 -194 -161 -483zM1452 733q0 -330 -184 -547t-508 -221q-321 4 -507 221q-187 217 -190 545q3 332 185 545q180 217 512 221q332 -4 512 -219t180 -545z
M920 1654q36 0 60 38t27 79h59q-8 -74 -43 -125q-35 -57 -113 -59q-36 1 -72 21t-69 38q-70 53 -143 58q-75 -5 -93 -117h-59q6 71 47 127t111 57q38 -1 72 -17t71 -36t74 -41q35 -23 71 -23z" />
    <glyph glyph-name="Odieresis" unicode="&#xd6;" horiz-adv-x="1517" 
d="M154 733q0 -289 161 -485q156 -201 445 -205q290 5 446 203t156 487t-156 485t-446 201q-289 -4 -445 -203q-161 -194 -161 -483zM1452 733q0 -330 -184 -547t-508 -221q-321 4 -507 221q-187 217 -190 545q3 332 185 545q180 217 512 221q332 -4 512 -219t180 -545z
M979 1570h-90v211h90v-211zM655 1570h-90v211h90v-211z" />
    <glyph glyph-name="multiply" unicode="&#xd7;" horiz-adv-x="1229" 
d="M162 119l397 397l-397 399l53 56l399 -400l398 400l55 -56l-397 -399l397 -397l-55 -56l-398 400l-399 -400z" />
    <glyph glyph-name="Oslash" unicode="&#xd8;" horiz-adv-x="1517" 
d="M1452 726q0 -323 -184 -540t-508 -221q-303 2 -481 191l-156 -172l-53 49l161 176q-169 211 -167 533t184 534q180 217 512 221q297 -4 475 -186l139 151l53 -49l-143 -156q168 -208 168 -531zM154 744q0 -278 139 -470l885 973q-156 168 -418 172q-289 -4 -445 -203
q-161 -194 -161 -472zM1362 722q0 278 -137 470l-887 -971q156 -176 422 -178q290 5 446 203t156 476z" />
    <glyph glyph-name="Ugrave" unicode="&#xd9;" horiz-adv-x="1376" 
d="M129 1462h90v-876q0 -190 73 -336q44 -88 137 -146t249 -61q266 2 377 147q104 144 102 396v876h90v-876q2 -267 -122 -442t-447 -179q-192 1 -304 69t-164 168q-87 168 -81 384v876zM816 1564h-76l-274 287h104z" />
    <glyph glyph-name="Uacute" unicode="&#xda;" horiz-adv-x="1376" 
d="M129 1462h90v-876q0 -190 73 -336q44 -88 137 -146t249 -61q266 2 377 147q104 144 102 396v876h90v-876q2 -267 -122 -442t-447 -179q-192 1 -304 69t-164 168q-87 168 -81 384v876zM582 1564l246 287h104l-274 -287h-76z" />
    <glyph glyph-name="Ucircumflex" unicode="&#xdb;" horiz-adv-x="1376" 
d="M129 1462h90v-876q0 -190 73 -336q44 -88 137 -146t249 -61q266 2 377 147q104 144 102 396v876h90v-876q2 -267 -122 -442t-447 -179q-192 1 -304 69t-164 168q-87 168 -81 384v876zM654 1851h82l237 -287h-77l-201 236l-199 -236h-77z" />
    <glyph glyph-name="Udieresis" unicode="&#xdc;" horiz-adv-x="1376" 
d="M129 1462h90v-876q0 -190 73 -336q44 -88 137 -146t249 -61q266 2 377 147q104 144 102 396v876h90v-876q2 -267 -122 -442t-447 -179q-192 1 -304 69t-164 168q-87 168 -81 384v876zM904 1570h-90v211h90v-211zM580 1570h-90v211h90v-211z" />
    <glyph glyph-name="Yacute" unicode="&#xdd;" horiz-adv-x="1175" 
d="M631 0h-90v612l-584 850h102l529 -774l530 774h100l-587 -850v-612zM487 1564l246 287h104l-274 -287h-76z" />
    <glyph glyph-name="Thorn" unicode="&#xde;" horiz-adv-x="1214" 
d="M219 1139v-656h514q187 0 277 109q77 84 77 214q0 50 -10 105q-35 134 -151 195q-70 33 -181 33h-526zM129 0v1462h90v-246h533q65 0 139 -12q71 -16 138 -58q149 -93 149 -337q-7 -399 -459 -404h-500v-405h-90z" />
    <glyph glyph-name="germandbls" unicode="&#xdf;" horiz-adv-x="1024" 
d="M424 844q153 0 263 70t112 233q-2 137 -89 205t-219 67q-299 -6 -294 -319v-1100h-78v1100q-2 383 372 387q166 0 275 -82q108 -86 110 -258q3 -258 -243 -322v-4q315 -51 315 -383q0 -261 -158 -366q-109 -72 -253 -72h-113v68h78q122 -5 229 60q139 85 138 297
t-126 286q-125 67 -319 65v68z" />
    <glyph glyph-name="agrave" unicode="&#xe0;" horiz-adv-x="1024" 
d="M960 68q21 0 58 6v-66q-33 -8 -64 -8q-90 0 -114 47q-29 41 -27 107v55h-4q-37 -94 -139 -163t-252 -70q-152 -1 -251 66t-101 230q0 170 130 245q58 34 109 45q102 22 148 22q251 14 313 55q35 25 42 63t7 79q0 42 -11 76q-26 80 -132 130q-58 23 -150 23
q-295 -2 -323 -281h-78q22 348 401 348q144 1 256 -57t113 -217v-608q-2 -48 10 -86q10 -41 59 -41zM813 401v197q-23 -25 -68 -40t-313 -42q-287 -18 -289 -244q0 -98 72 -161q68 -66 204 -67t214 50q136 76 170 230q10 57 10 77zM638 1210h-76l-274 287h104z" />
    <glyph glyph-name="aacute" unicode="&#xe1;" horiz-adv-x="1024" 
d="M960 68q21 0 58 6v-66q-33 -8 -64 -8q-90 0 -114 47q-29 41 -27 107v55h-4q-37 -94 -139 -163t-252 -70q-152 -1 -251 66t-101 230q0 170 130 245q58 34 109 45q102 22 148 22q251 14 313 55q35 25 42 63t7 79q0 42 -11 76q-26 80 -132 130q-58 23 -150 23
q-295 -2 -323 -281h-78q22 348 401 348q144 1 256 -57t113 -217v-608q-2 -48 10 -86q10 -41 59 -41zM813 401v197q-23 -25 -68 -40t-313 -42q-287 -18 -289 -244q0 -98 72 -161q68 -66 204 -67t214 50q136 76 170 230q10 57 10 77zM407 1210l246 287h104l-274 -287h-76z" />
    <glyph glyph-name="acircumflex" unicode="&#xe2;" horiz-adv-x="1024" 
d="M960 68q21 0 58 6v-66q-33 -8 -64 -8q-90 0 -114 47q-29 41 -27 107v55h-4q-37 -94 -139 -163t-252 -70q-152 -1 -251 66t-101 230q0 170 130 245q58 34 109 45q102 22 148 22q251 14 313 55q35 25 42 63t7 79q0 42 -11 76q-26 80 -132 130q-58 23 -150 23
q-295 -2 -323 -281h-78q22 348 401 348q144 1 256 -57t113 -217v-608q-2 -48 10 -86q10 -41 59 -41zM813 401v197q-23 -25 -68 -40t-313 -42q-287 -18 -289 -244q0 -98 72 -161q68 -66 204 -67t214 50q136 76 170 230q10 57 10 77zM476 1497h82l237 -287h-77l-201 236
l-199 -236h-77z" />
    <glyph glyph-name="atilde" unicode="&#xe3;" horiz-adv-x="1024" 
d="M960 68q21 0 58 6v-66q-33 -8 -64 -8q-90 0 -114 47q-29 41 -27 107v55h-4q-37 -94 -139 -163t-252 -70q-152 -1 -251 66t-101 230q0 170 130 245q58 34 109 45q102 22 148 22q251 14 313 55q35 25 42 63t7 79q0 42 -11 76q-26 80 -132 130q-58 23 -150 23
q-295 -2 -323 -281h-78q22 348 401 348q144 1 256 -57t113 -217v-608q-2 -48 10 -86q10 -41 59 -41zM813 401v197q-23 -25 -68 -40t-313 -42q-287 -18 -289 -244q0 -98 72 -161q68 -66 204 -67t214 50q136 76 170 230q10 57 10 77zM670 1300q36 0 60 38t26 79h59
q-8 -74 -43 -125q-35 -57 -113 -59q-37 1 -73 21t-68 38q-70 53 -143 58q-75 -5 -93 -117h-59q6 71 47 127t111 57q37 -1 71 -17t72 -36q37 -20 74 -41q36 -23 72 -23z" />
    <glyph glyph-name="adieresis" unicode="&#xe4;" horiz-adv-x="1024" 
d="M960 68q21 0 58 6v-66q-33 -8 -64 -8q-90 0 -114 47q-29 41 -27 107v55h-4q-37 -94 -139 -163t-252 -70q-152 -1 -251 66t-101 230q0 170 130 245q58 34 109 45q102 22 148 22q251 14 313 55q35 25 42 63t7 79q0 42 -11 76q-26 80 -132 130q-58 23 -150 23
q-295 -2 -323 -281h-78q22 348 401 348q144 1 256 -57t113 -217v-608q-2 -48 10 -86q10 -41 59 -41zM813 401v197q-23 -25 -68 -40t-313 -42q-287 -18 -289 -244q0 -98 72 -161q68 -66 204 -67t214 50q136 76 170 230q10 57 10 77zM728 1216h-90v211h90v-211zM404 1216h-90
v211h90v-211z" />
    <glyph glyph-name="aring" unicode="&#xe5;" horiz-adv-x="1024" 
d="M960 68q21 0 58 6v-66q-33 -8 -64 -8q-90 0 -114 47q-29 41 -27 107v55h-4q-37 -94 -139 -163t-252 -70q-152 -1 -251 66t-101 230q0 170 130 245q58 34 109 45q102 22 148 22q251 14 313 55q35 25 42 63t7 79q0 42 -11 76q-26 80 -132 130q-58 23 -150 23
q-295 -2 -323 -281h-78q22 348 401 348q144 1 256 -57t113 -217v-608q-2 -48 10 -86q10 -41 59 -41zM813 401v197q-23 -25 -68 -40t-313 -42q-287 -18 -289 -244q0 -98 72 -161q68 -66 204 -67t214 50q136 76 170 230q10 57 10 77zM520 1456q-64 0 -104 -41
q-42 -41 -42 -105t43 -104q39 -43 103 -43t105 42q41 41 41 105t-41 105t-105 41zM722 1312q0 -88 -56 -146t-144 -58q-86 0 -144 58t-58 146q0 87 58 143t144 56q87 0 144 -55q56 -57 56 -144z" />
    <glyph glyph-name="ae" unicode="&#xe6;" horiz-adv-x="1821" 
d="M510 1077q162 0 264 -53q102 -57 119 -215h4q106 268 399 268q244 -4 360 -167t97 -394h-842q-11 -199 87 -335t298 -138q310 2 367 307h78q-72 -368 -445 -375q-157 0 -270 78t-152 228h-4q-114 -299 -428 -306q-150 0 -262 70t-114 223q0 175 132 251q105 61 250 61
q70 8 140 11t128 14q56 11 89 49t26 110q0 248 -307 247t-336 -288h-77q13 182 125 268t274 86zM831 592h-4q-12 -21 -58 -37t-217 -28q-170 -11 -224 -25t-95 -43q-88 -58 -90 -191q0 -107 97 -172q88 -53 202 -53q158 2 271 109q112 102 118 260v180zM1292 1008
q-184 0 -276 -125q-94 -121 -107 -299h766q4 178 -97 301q-102 123 -286 123z" />
    <glyph glyph-name="ccedilla" unicode="&#xe7;" horiz-adv-x="1063" 
d="M657 -250q-4 94 -116 94q-47 0 -93 -24l-32 26l98 131q-232 23 -340 181t-107 382t125 378t359 159q176 0 296 -85t138 -265h-78q-12 141 -110 213q-99 70 -246 70q-197 -5 -299 -146q-107 -138 -107 -340q-1 -202 101 -340t305 -141q149 2 247 91t119 237h78
q-69 -367 -413 -394l-80 -92l4 -4q33 19 85 20t97 -35t47 -116q0 -151 -209 -151q-131 4 -184 43l23 49q98 -34 155 -36q133 -3 137 95z" />
    <glyph glyph-name="egrave" unicode="&#xe8;" horiz-adv-x="1063" 
d="M145 584h772q-4 172 -102 297q-100 124 -283 129q-176 -5 -274 -134t-113 -292zM995 516h-850q-2 -190 97 -328q96 -143 290 -145q310 4 377 313h78q-70 -376 -455 -381q-230 5 -348 157t-116 376q-5 227 112 396t352 173q248 -5 362 -165t101 -396zM651 1210h-76
l-274 287h104z" />
    <glyph glyph-name="eacute" unicode="&#xe9;" horiz-adv-x="1063" 
d="M145 584h772q-4 172 -102 297q-100 124 -283 129q-176 -5 -274 -134t-113 -292zM995 516h-850q-2 -190 97 -328q96 -143 290 -145q310 4 377 313h78q-70 -376 -455 -381q-230 5 -348 157t-116 376q-5 227 112 396t352 173q248 -5 362 -165t101 -396zM420 1210l246 287
h104l-274 -287h-76z" />
    <glyph glyph-name="ecircumflex" unicode="&#xea;" horiz-adv-x="1063" 
d="M145 584h772q-4 172 -102 297q-100 124 -283 129q-176 -5 -274 -134t-113 -292zM995 516h-850q-2 -190 97 -328q96 -143 290 -145q310 4 377 313h78q-70 -376 -455 -381q-230 5 -348 157t-116 376q-5 227 112 396t352 173q248 -5 362 -165t101 -396zM489 1497h82
l237 -287h-77l-201 236l-199 -236h-77z" />
    <glyph glyph-name="edieresis" unicode="&#xeb;" horiz-adv-x="1063" 
d="M145 584h772q-4 172 -102 297q-100 124 -283 129q-176 -5 -274 -134t-113 -292zM995 516h-850q-2 -190 97 -328q96 -143 290 -145q310 4 377 313h78q-70 -376 -455 -381q-230 5 -348 157t-116 376q-5 227 112 396t352 173q248 -5 362 -165t101 -396zM741 1216h-90v211h90
v-211zM417 1216h-90v211h90v-211z" />
    <glyph glyph-name="igrave" unicode="&#xec;" horiz-adv-x="344" 
d="M211 0h-78v1053h78v-1053zM288 1210h-76l-274 287h104z" />
    <glyph glyph-name="iacute" unicode="&#xed;" horiz-adv-x="344" 
d="M211 0h-78v1053h78v-1053zM53 1210l246 287h104l-274 -287h-76z" />
    <glyph glyph-name="icircumflex" unicode="&#xee;" horiz-adv-x="344" 
d="M211 0h-78v1053h78v-1053zM124 1497h82l237 -287h-77l-201 236l-199 -236h-77z" />
    <glyph glyph-name="idieresis" unicode="&#xef;" horiz-adv-x="344" 
d="M211 0h-78v1053h78v-1053zM376 1216h-90v211h90v-211zM52 1216h-90v211h90v-211z" />
    <glyph glyph-name="eth" unicode="&#xf0;" horiz-adv-x="1100" 
d="M66 506q0 226 126 376t359 154q92 0 176 -32t158 -119l4 4q-101 215 -318 385l-229 -127l-43 45l221 123q-104 80 -211 133l58 49q122 -66 221 -145l235 131l41 -45l-223 -125q389 -303 391 -803q0 -226 -118 -378t-363 -157q-245 5 -365 155t-120 376zM143 508
q-1 -186 101 -324t307 -141q211 2 307 139q96 136 96 324t-100 324t-303 139q-199 -4 -301 -140q-107 -135 -107 -321z" />
    <glyph glyph-name="ntilde" unicode="&#xf1;" horiz-adv-x="1063" 
d="M115 0v1053h77v-226h5q43 121 147 185t236 64q132 -1 210 -47q133 -79 154 -255q4 -72 4 -123v-651h-78v666q0 43 -4 102q-8 58 -36 114q-61 125 -259 128q-175 -2 -277 -123t-102 -318v-569h-77zM686 1300q36 0 60 38t27 79h59q-8 -74 -43 -125q-35 -57 -113 -59
q-36 1 -72 21t-69 38q-70 53 -143 58q-75 -5 -93 -117h-59q6 71 47 127t111 57q38 -1 72 -17t71 -36t74 -41q35 -23 71 -23z" />
    <glyph glyph-name="ograve" unicode="&#xf2;" horiz-adv-x="1100" 
d="M143 528q0 -196 107 -336q102 -145 299 -149q201 5 303 147t102 338t-102 336q-102 141 -303 146q-197 -5 -299 -146q-107 -140 -107 -336zM66 528q0 230 126 388t357 161q235 -3 359 -161t124 -388t-124 -390q-124 -158 -359 -163q-231 5 -357 163q-126 160 -126 390z
M676 1210h-76l-274 287h104z" />
    <glyph glyph-name="oacute" unicode="&#xf3;" horiz-adv-x="1100" 
d="M143 528q0 -196 107 -336q102 -145 299 -149q201 5 303 147t102 338t-102 336q-102 141 -303 146q-197 -5 -299 -146q-107 -140 -107 -336zM66 528q0 230 126 388t357 161q235 -3 359 -161t124 -388t-124 -390q-124 -158 -359 -163q-231 5 -357 163q-126 160 -126 390z
M445 1210l246 287h104l-274 -287h-76z" />
    <glyph glyph-name="ocircumflex" unicode="&#xf4;" horiz-adv-x="1100" 
d="M143 528q0 -196 107 -336q102 -145 299 -149q201 5 303 147t102 338t-102 336q-102 141 -303 146q-197 -5 -299 -146q-107 -140 -107 -336zM66 528q0 230 126 388t357 161q235 -3 359 -161t124 -388t-124 -390q-124 -158 -359 -163q-231 5 -357 163q-126 160 -126 390z
M515 1497h82l237 -287h-77l-201 236l-199 -236h-77z" />
    <glyph glyph-name="otilde" unicode="&#xf5;" horiz-adv-x="1100" 
d="M143 528q0 -196 107 -336q102 -145 299 -149q201 5 303 147t102 338t-102 336q-102 141 -303 146q-197 -5 -299 -146q-107 -140 -107 -336zM66 528q0 230 126 388t357 161q235 -3 359 -161t124 -388t-124 -390q-124 -158 -359 -163q-231 5 -357 163q-126 160 -126 390z
M706 1300q36 0 60 38t26 79h59q-8 -74 -43 -125q-35 -57 -113 -59q-37 1 -73 21t-68 38q-70 53 -143 58q-75 -5 -93 -117h-59q6 71 47 127t111 57q37 -1 71 -17t72 -36q37 -20 74 -41q36 -23 72 -23z" />
    <glyph glyph-name="odieresis" unicode="&#xf6;" horiz-adv-x="1100" 
d="M143 528q0 -196 107 -336q102 -145 299 -149q201 5 303 147t102 338t-102 336q-102 141 -303 146q-197 -5 -299 -146q-107 -140 -107 -336zM66 528q0 230 126 388t357 161q235 -3 359 -161t124 -388t-124 -390q-124 -158 -359 -163q-231 5 -357 163q-126 160 -126 390z
M764 1216h-90v211h90v-211zM440 1216h-90v211h90v-211z" />
    <glyph glyph-name="divide" unicode="&#xf7;" horiz-adv-x="1229" 
d="M512 106q0 46 30 76t75 29q44 0 75 -29q29 -30 29 -76t-30 -76t-74 -30t-72 33q-33 27 -33 73zM512 928q0 44 30 74t75 30q44 0 75 -29q29 -30 29 -75t-30 -76t-74 -31t-72 33q-33 29 -33 74zM1130 477h-1032v78h1032v-78z" />
    <glyph glyph-name="oslash" unicode="&#xf8;" horiz-adv-x="1100" 
d="M1032 514q0 -218 -124 -376t-359 -163q-217 5 -338 142l-111 -117l-49 47l117 125q-102 146 -102 366t126 378t357 161q221 -2 340 -145l112 119l50 -48l-119 -127q100 -145 100 -362zM954 511q0 179 -78 308l-612 -647q103 -127 285 -129q201 5 303 147t102 321z
M143 540q0 -182 80 -311l613 647q-97 129 -287 134q-197 -5 -299 -146q-107 -142 -107 -324z" />
    <glyph glyph-name="ugrave" unicode="&#xf9;" horiz-adv-x="1063" 
d="M948 1053v-1053h-78v225h-4q-42 -116 -146 -182t-236 -66t-208 50q-77 45 -119 131t-42 243v652h77v-666q0 -118 44 -211q30 -57 90 -92q59 -41 165 -41q181 2 279 125q100 119 100 315v570h78zM654 1210h-76l-274 287h104z" />
    <glyph glyph-name="uacute" unicode="&#xfa;" horiz-adv-x="1063" 
d="M948 1053v-1053h-78v225h-4q-42 -116 -146 -182t-236 -66t-208 50q-77 45 -119 131t-42 243v652h77v-666q0 -118 44 -211q30 -57 90 -92q59 -41 165 -41q181 2 279 125q100 119 100 315v570h78zM423 1210l246 287h104l-274 -287h-76z" />
    <glyph glyph-name="ucircumflex" unicode="&#xfb;" horiz-adv-x="1063" 
d="M948 1053v-1053h-78v225h-4q-42 -116 -146 -182t-236 -66t-208 50q-77 45 -119 131t-42 243v652h77v-666q0 -118 44 -211q30 -57 90 -92q59 -41 165 -41q181 2 279 125q100 119 100 315v570h78zM493 1497h82l237 -287h-77l-201 236l-199 -236h-77z" />
    <glyph glyph-name="udieresis" unicode="&#xfc;" horiz-adv-x="1063" 
d="M948 1053v-1053h-78v225h-4q-42 -116 -146 -182t-236 -66t-208 50q-77 45 -119 131t-42 243v652h77v-666q0 -118 44 -211q30 -57 90 -92q59 -41 165 -41q181 2 279 125q100 119 100 315v570h78zM745 1216h-90v211h90v-211zM421 1216h-90v211h90v-211z" />
    <glyph glyph-name="yacute" unicode="&#xfd;" horiz-adv-x="909" 
d="M100 -309q82 0 132 14t88 55q40 41 108 246l-440 1047h92l391 -961l360 961h88l-450 -1166q-61 -163 -123 -217q-76 -51 -246 -47v68zM349 1210l246 287h104l-274 -287h-76z" />
    <glyph glyph-name="thorn" unicode="&#xfe;" 
d="M133 -377v1839h78v-651h4q25 88 118 175t265 91q242 -5 358 -163t115 -396q1 -238 -115 -389q-116 -152 -358 -154q-130 -1 -232 59t-151 185h-4v-596h-78zM993 520q0 194 -92 339q-92 146 -303 151q-207 -5 -297 -147.5t-90 -336.5t85 -336t302 -147q205 2 303 143
q92 140 92 334z" />
    <glyph glyph-name="ydieresis" unicode="&#xff;" horiz-adv-x="909" 
d="M100 -309q82 0 132 14t88 55q40 41 108 246l-440 1047h92l391 -961l360 961h88l-450 -1166q-61 -163 -123 -217q-76 -51 -246 -47v68zM670 1216h-90v211h90v-211zM346 1216h-90v211h90v-211z" />
    <glyph glyph-name="dotlessi" unicode="&#x131;" horiz-adv-x="344" 
d="M211 0h-78v1053h78v-1053z" />
    <glyph glyph-name="Lslash" unicode="&#x141;" horiz-adv-x="1024" 
d="M129 1462h90v-784l481 293v-74l-481 -291v-528h830v-78h-920v551l-174 -109v78l174 105v837z" />
    <glyph glyph-name="lslash" unicode="&#x142;" horiz-adv-x="344" 
d="M133 1462h78v-717l133 105v-68l-133 -104v-678h-78v616l-133 -104v68l133 104v778z" />
    <glyph glyph-name="OE" unicode="&#x152;" horiz-adv-x="2163" 
d="M1264 1384v-585h774v-78h-774v-643h868v-78h-959v135h-4q-49 -67 -159 -117t-273 -53q-327 4 -497 221q-177 212 -177 536t181 546q176 225 510 229q247 0 419 -170v135h955v-78h-864zM1173 260v924q-3 43 -41 83t-75 62q-133 90 -295 90q-299 -4 -453 -207
q-155 -198 -155 -485t145 -481q143 -199 444 -203q136 -2 258 55q50 26 94 60q78 62 78 102z" />
    <glyph glyph-name="oe" unicode="&#x153;" horiz-adv-x="1821" 
d="M1677 584q0 172 -88 297q-90 124 -268 129q-189 -6 -281 -130t-90 -296h727zM1755 516h-805q-10 -186 78 -328t293 -145q145 0 231 83t117 220h78q-37 -168 -143 -268t-283 -103q-342 5 -410 310h-4q-76 -308 -393 -310q-246 5 -346 166q-105 158 -102 371
q-3 231 110 395q109 166 344 170q316 -4 389 -311h4q84 309 408 311q237 -4 343 -169t91 -392zM516 43q211 4 287 158q69 116 70 314t-77 344t-278 151q-211 -4 -294 -160t-82 -342q0 -186 90 -324t284 -141z" />
    <glyph glyph-name="Scaron" unicode="&#x160;" horiz-adv-x="1290" 
d="M213 1112q0 -88 45 -143q66 -93 250 -139q66 -16 110 -26q46 -9 93 -22q96 -16 184 -42q198 -57 274 -181q41 -72 41 -182q-6 -225 -172 -318q-162 -94 -342 -94q-262 0 -437 120t-179 398h90q-4 -235 150 -339t376 -101q158 0 279 74q65 39 106 102q39 64 39 158
t-41 153q-79 106 -274 152q-88 20 -185 37q-136 35 -202 53t-138 59t-112 107q-45 67 -45 170q3 211 157 300t334 89q236 0 391 -104q154 -109 168 -349h-90q-8 189 -135 283q-129 92 -334 92q-133 2 -262 -63q-59 -35 -98 -97q-41 -59 -41 -147zM682 1564h-82l-236 287h78
l199 -236l200 236h78z" />
    <glyph glyph-name="scaron" unicode="&#x161;" horiz-adv-x="985" 
d="M500 43q222 0 301 115q32 44 32 110t-28 109q-31 43 -84 65q-61 31 -189 56q-127 24 -190 44t-117 50q-53 33 -82 84q-32 51 -32 131q0 146 125 215q116 57 272 56t264 -77q107 -79 109 -260h-78q-2 144 -88 207q-88 62 -212 62t-216 -43q-99 -58 -99 -160q0 -62 33 -100
q45 -60 135 -84q27 -9 58 -19q71 -13 125 -29q161 -22 266 -86q106 -69 106 -224q0 -154 -135 -228q-111 -62 -285 -62q-175 -1 -291 95t-126 280h78q12 -145 108 -226t240 -81zM525 1210h-82l-236 287h78l199 -236l200 236h78z" />
    <glyph glyph-name="Ydieresis" unicode="&#x178;" horiz-adv-x="1175" 
d="M631 0h-90v612l-584 850h102l529 -774l530 774h100l-587 -850v-612zM808 1570h-90v211h90v-211zM484 1570h-90v211h90v-211z" />
    <glyph glyph-name="florin" unicode="&#x192;" 
d="M870 1419q-60 0 -120 -46q-58 -46 -82 -159l-66 -335h246l-10 -68h-248l-164 -838q-4 -43 -22 -101q-48 -150 -140 -208q-92 -63 -254 -29l15 76q51 -10 102 -10q90 2 141 82q54 76 74 201l162 827h-230l15 68h227l68 346q20 108 90 189t211 83q57 0 125 -12l-17 -78
q-63 12 -123 12z" />
    <glyph glyph-name="circumflex" unicode="&#x2c6;" horiz-adv-x="342" 
d="M129 1497h82l237 -287h-77l-201 236l-199 -236h-77z" />
    <glyph glyph-name="caron" unicode="&#x2c7;" horiz-adv-x="342" 
d="M199 1210h-82l-236 287h78l199 -236l200 236h78z" />
    <glyph glyph-name="breve" unicode="&#x2d8;" horiz-adv-x="342" 
d="M381 1497h67q-14 -100 -88 -172t-184 -73t-186 67q-78 63 -96 178h67q31 -100 93 -144t124 -34q78 -2 135 49q54 51 68 129z" />
    <glyph glyph-name="dotaccent" unicode="&#x2d9;" horiz-adv-x="342" 
d="M215 1216h-90v211h90v-211z" />
    <glyph glyph-name="ring" unicode="&#x2da;" horiz-adv-x="342" 
d="M170 1456q-64 0 -106 -41t-41 -105q0 -64 43 -104q40 -43 104 -43t104 42q41 41 41 105t-40.5 105t-104.5 41zM371 1312q-1 -88 -57 -146t-143 -58t-145 58t-57 146q-1 87 57 143t145 56t144 -55q56 -57 56 -144z" />
    <glyph glyph-name="ogonek" unicode="&#x2db;" horiz-adv-x="342" 
d="M4 -294q0 36 8 66q18 65 103 146q43 41 114 82h50q-111 -92 -149 -152t-37 -112q1 -50 33 -74t64 -27q85 0 127 82l52 -16q-21 -53 -69 -92q-87 -71 -224 -19q-29 17 -49 50q-23 30 -23 66z" />
    <glyph glyph-name="tilde" unicode="&#x2dc;" horiz-adv-x="342" 
d="M322 1300q36 0 60 38t26 79h59q-8 -74 -43 -125q-35 -57 -113 -59q-37 1 -73 21t-68 38q-70 53 -143 58q-75 -5 -93 -117h-59q6 71 47 127t111 57q37 -1 71 -17t72 -36q37 -20 74 -41q36 -23 72 -23z" />
    <glyph glyph-name="endash" unicode="&#x2013;" horiz-adv-x="1024" 
d="M0 518v78h1024v-78h-1024z" />
    <glyph glyph-name="emdash" unicode="&#x2014;" horiz-adv-x="2048" 
d="M266 518v78h1516v-78h-1516z" />
    <glyph glyph-name="quoteleft" unicode="&#x2018;" horiz-adv-x="418" 
d="M223 1204h43v-211h-104v211q0 86 28 158q38 79 103 100v-67q-41 -23 -51 -67q-18 -78 -19 -124z" />
    <glyph glyph-name="quoteright" unicode="&#x2019;" horiz-adv-x="418" 
d="M256 1462v-211q0 -205 -131 -258v68q70 35 70 190h-43v211h104z" />
    <glyph glyph-name="quotesinglbase" unicode="&#x201a;" horiz-adv-x="418" 
d="M256 211v-211q0 -205 -131 -258v68q70 35 70 190h-43v211h104z" />
    <glyph glyph-name="quotedblleft" unicode="&#x201c;" horiz-adv-x="645" 
d="M451 1204h43v-211h-105v211q-1 144 69 220q24 26 62 38v-67q-41 -23 -51 -67q-18 -79 -18 -124zM192 1204h44v-211h-105v211q-1 144 69 220q24 26 62 38v-67q-41 -23 -51 -67q-19 -84 -19 -124z" />
    <glyph glyph-name="quotedblright" unicode="&#x201d;" horiz-adv-x="645" 
d="M256 1462v-211q0 -205 -131 -258v68q70 35 70 190h-43v211h104zM514 1462v-211q0 -205 -131 -258v68q70 34 70 190h-43v211h104z" />
    <glyph glyph-name="quotedblbase" unicode="&#x201e;" horiz-adv-x="645" 
d="M256 211v-211q0 -205 -131 -258v68q70 35 70 190h-43v211h104zM514 211v-211q0 -205 -131 -258v68q70 34 70 190h-43v211h104z" />
    <glyph glyph-name="dagger" unicode="&#x2020;" 
d="M111 1053h419v409h78v-409h420v-68h-420v-1284h-78v1284h-419v68z" />
    <glyph glyph-name="daggerdbl" unicode="&#x2021;" 
d="M530 1462h78v-409h420v-68h-420v-807h420v-67h-420v-410h-78v410h-419v67h419v807h-419v68h419v409z" />
    <glyph glyph-name="bullet" unicode="&#x2022;" horiz-adv-x="1024" 
d="M149 732q0 157 107 259q102 103 258 103t259 -102t106 -261q-3 -156 -107 -258q-102 -106 -258 -106t-258 106q-107 102 -107 259z" />
    <glyph glyph-name="ellipsis" unicode="&#x2026;" horiz-adv-x="2048" 
d="M1653 0v211h104v-211h-104zM971 0v211h104v-211h-104zM289 0v211h104v-211h-104z" />
    <glyph glyph-name="perthousand" unicode="&#x2030;" horiz-adv-x="2199" 
d="M627 1094q1 118 -59 196t-174 78t-174 -75t-61 -195t56 -201q53 -82 174 -82t180 80q58 81 58 199zM398 1436q146 0 226 -94q78 -94 79 -248q1 -152 -77 -250t-232 -98q-154 2 -233 98t-79 250t88 247q82 95 228 95zM1802 43q122 0 180 81q58 80 58 198t-60 197t-172 79
q-114 0 -174 -76t-62 -196q-1 -120 56 -201q53 -82 174 -82zM1810 666q146 0 226 -96t81 -248t-79 -248t-234 -97t-231 95q-78 96 -78 250t86 247q83 97 229 97zM844 326q0 -120 53 -202q53 -81 174 -81t181 81q60 80 59 198q0 118 -60 198q-61 78 -175 78t-173 -76
t-59 -196zM766 322q0 154 88 247q82 97 228 97t226 -96q78 -96 79 -248t-77 -248t-232 -97q-154 0 -232 97q-80 94 -80 248zM215 -49l952 1511h82l-952 -1511h-82z" />
    <glyph glyph-name="guilsinglleft" unicode="&#x2039;" horiz-adv-x="530" 
d="M371 248l-234 268v82l234 268v-104l-174 -205l174 -209v-100z" />
    <glyph glyph-name="guilsinglright" unicode="&#x203a;" horiz-adv-x="530" 
d="M160 248v100l174 209l-174 205v104l233 -268v-82z" />
    <glyph glyph-name="trademark" unicode="&#x2122;" horiz-adv-x="2027" 
d="M1853 1462v-844h-65v777h-6l-342 -777h-37l-342 777h-6v-777h-66v844h121l311 -708l311 708h121zM827 1462v-67h-293v-777h-65v777h-295v67h653z" />
    <glyph glyph-name="minus" unicode="&#x2212;" horiz-adv-x="721" 
d="M580 518h-439v78h439v-78z" />
    <glyph glyph-name="fraction" unicode="&#x2215;" horiz-adv-x="342" 
d="M-346 -49l952 1511h82l-952 -1511h-82z" />
    <glyph glyph-name="fi" unicode="&#xfb01;" horiz-adv-x="797" 
d="M586 0v1053h78v-1053h-78zM586 1251v211h78v-211h-78zM0 985v68h188v217q0 110 67 160t165 49q47 0 92 -11v-67q-46 10 -102 10q-56 1 -100 -29t-44 -118v-211h219v-68h-219v-985h-78v985h-188z" />
    <glyph glyph-name="fl" unicode="&#xfb02;" horiz-adv-x="797" 
d="M586 0v1462h78v-1462h-78zM0 985v68h188v217q0 110 67 160t165 49q47 0 92 -11v-67q-46 10 -102 10q-56 1 -100 -29t-44 -118v-211h219v-68h-219v-985h-78v985h-188z" />
    </font>
</defs>
</svg>
